--40000LOG 06:21:31:337029500 Waiting for file /home/seluser/videos/vid_chrome_or_firefox_40000* to be created...
Won't start video recording due to VIDEO env var false
ffmpeg version 2.8.17-0ubuntu0.1 Copyright (c) 2000-2020 the FFmpeg developers
  built with gcc 5.4.0 (Ubuntu 5.4.0-6ubuntu1~16.04.12) 20160609
  configuration: --prefix=/usr --extra-version=0ubuntu0.1 --build-suffix=-ffmpeg --toolchain=hardened --libdir=/usr/lib/x86_64-linux-gnu --incdir=/usr/include/x86_64-linux-gnu --cc=cc --cxx=g++ --enable-gpl --enable-shared --disable-stripping --disable-decoder=libopenjpeg --disable-decoder=libschroedinger --enable-avresample --enable-avisynth --enable-gnutls --enable-ladspa --enable-libass --enable-libbluray --enable-libbs2b --enable-libcaca --enable-libcdio --enable-libflite --enable-libfontconfig --enable-libfreetype --enable-libfribidi --enable-libgme --enable-libgsm --enable-libmodplug --enable-libmp3lame --enable-libopenjpeg --enable-libopus --enable-libpulse --enable-librtmp --enable-libschroedinger --enable-libshine --enable-libsnappy --enable-libsoxr --enable-libspeex --enable-libssh --enable-libtheora --enable-libtwolame --enable-libvorbis --enable-libvpx --enable-libwavpack --enable-libwebp --enable-libx265 --enable-libxvid --enable-libzvbi --enable-openal --enable-opengl --enable-x11grab --enable-libdc1394 --enable-libiec61883 --enable-libzmq --enable-frei0r --enable-libx264 --enable-libopencv
  libavutil      54. 31.100 / 54. 31.100
  libavcodec     56. 60.100 / 56. 60.100
  libavformat    56. 40.101 / 56. 40.101
  libavdevice    56.  4.100 / 56.  4.100
  libavfilter     5. 40.101 /  5. 40.101
  libavresample   2.  1.  0 /  2.  1.  0
  libswscale      3.  1.101 /  3.  1.101
  libswresample   1.  2.101 /  1.  2.101
  libpostproc    53.  3.100 / 53.  3.100
Input #0, x11grab, from ':61.0':
  Duration: N/A, start: 1604463691.481772, bitrate: N/A
    Stream #0:0: Video: rawvideo (BGR[0] / 0x524742), bgr0, 1366x768, 10 fps, 10 tbr, 1000k tbn, 10 tbc
[libx264 @ 0x208b320] using cpu capabilities: MMX2 SSE2Fast SSSE3 SSE4.2 AVX FMA3 AVX2 LZCNT BMI2
[libx264 @ 0x208b320] profile Constrained Baseline, level 3.2
[libx264 @ 0x208b320] 264 - core 148 r2643 5c65704 - H.264/MPEG-4 AVC codec - Copyleft 2003-2015 - http://www.videolan.org/x264.html - options: cabac=0 ref=1 deblock=0:0:0 analyse=0:0 me=dia subme=0 psy=1 psy_rd=1.00:0.00 mixed_ref=0 me_range=16 chroma_me=1 trellis=0 8x8dct=0 cqm=0 deadzone=21,11 fast_pskip=1 chroma_qp_offset=0 threads=3 lookahead_threads=1 sliced_threads=0 nr=0 decimate=1 interlaced=0 bluray_compat=0 constrained_intra=0 bframes=0 weightp=0 keyint=250 keyint_min=10 scenecut=0 intra_refresh=0 rc=crf mbtree=0 crf=23.0 qcomp=0.60 qpmin=0 qpmax=69 qpstep=4 ip_ratio=1.40 aq=0
Output #0, matroska, to '/home/seluser/videos/vid_chrome_or_firefox_40000.mkv':
  Metadata:
    encoder         : Lavf56.40.101
    Stream #0:0: Video: h264 (libx264) (H264 / 0x34363248), yuv420p, 1366x768, q=-1--1, 10 fps, 1k tbn, 10 tbc
    Metadata:
      encoder         : Lavc56.60.100 libx264
Stream mapping:
  Stream #0:0 -> #0:0 (rawvideo (native) -> h264 (libx264))
Press [q] to stop, [?] for help
[swscaler @ 0x2096ca0] Warning: data is not aligned! This can lead to a speedloss
frame=    7 fps=0.0 q=10.0 size=      24kB time=00:00:00.30 bitrate= 656.4kbits/s    
frame=   12 fps= 12 q=9.0 size=      28kB time=00:00:00.80 bitrate= 282.7kbits/s    
frame=   18 fps= 11 q=9.0 size=      28kB time=00:00:01.40 bitrate= 165.2kbits/s    
frame=   23 fps= 11 q=9.0 size=      29kB time=00:00:01.90 bitrate= 124.6kbits/s    
frame=   29 fps= 11 q=13.0 size=      37kB time=00:00:02.50 bitrate= 121.8kbits/s    
frame=   34 fps= 11 q=9.0 size=      54kB time=00:00:03.00 bitrate= 147.4kbits/s    
frame=   39 fps= 10 q=9.0 size=      56kB time=00:00:03.50 bitrate= 130.1kbits/s    
frame=   45 fps= 10 q=9.0 size=      57kB time=00:00:04.10 bitrate= 113.8kbits/s    
frame=   49 fps= 10 q=15.0 size=      78kB time=00:00:04.50 bitrate= 142.4kbits/s    
frame=   56 fps= 10 q=10.0 size=     106kB time=00:00:05.20 bitrate= 166.7kbits/s    
frame=   62 fps= 10 q=9.0 size=     111kB time=00:00:05.80 bitrate= 157.2kbits/s    
frame=   68 fps= 10 q=13.0 size=     112kB time=00:00:06.40 bitrate= 143.5kbits/s    
frame=   73 fps= 10 q=10.0 size=     134kB time=00:00:06.90 bitrate= 158.8kbits/s    
frame=   78 fps= 10 q=9.0 size=     136kB time=00:00:07.40 bitrate= 150.8kbits/s    
frame=   84 fps= 10 q=9.0 size=     138kB time=00:00:08.00 bitrate= 140.9kbits/s    
frame=   90 fps= 10 q=9.0 size=     139kB time=00:00:08.60 bitrate= 132.5kbits/s    
frame=   96 fps= 10 q=9.0 size=     140kB time=00:00:09.20 bitrate= 124.9kbits/s    
frame=  102 fps= 10 q=9.0 size=     142kB time=00:00:09.80 bitrate= 118.4kbits/s    
frame=  107 fps= 10 q=9.0 size=     142kB time=00:00:10.30 bitrate= 113.2kbits/s    
frame=  113 fps= 10 q=9.0 size=     144kB time=00:00:10.90 bitrate= 108.3kbits/s    
frame=  118 fps= 10 q=9.0 size=     145kB time=00:00:11.40 bitrate= 104.2kbits/s    
frame=  124 fps= 10 q=9.0 size=     146kB time=00:00:12.00 bitrate=  99.8kbits/s    
frame=  129 fps= 10 q=9.0 size=     147kB time=00:00:12.50 bitrate=  96.6kbits/s    
frame=  135 fps= 10 q=9.0 size=     148kB time=00:00:13.10 bitrate=  92.9kbits/s    
frame=  140 fps= 10 q=12.0 size=     186kB time=00:00:13.60 bitrate= 111.9kbits/s    
frame=  145 fps= 10 q=12.0 size=     249kB time=00:00:14.10 bitrate= 144.8kbits/s    
frame=  151 fps= 10 q=9.0 size=     270kB time=00:00:14.70 bitrate= 150.7kbits/s    
frame=  157 fps= 10 q=11.0 size=     284kB time=00:00:15.30 bitrate= 152.2kbits/s    
frame=  162 fps= 10 q=11.0 size=     289kB time=00:00:15.80 bitrate= 149.6kbits/s    
frame=  167 fps= 10 q=10.0 size=     300kB time=00:00:16.30 bitrate= 150.6kbits/s    
frame=  173 fps= 10 q=15.0 size=     314kB time=00:00:16.90 bitrate= 152.1kbits/s    
frame=  177 fps= 10 q=12.0 size=     350kB time=00:00:17.30 bitrate= 165.6kbits/s    
frame=  184 fps= 10 q=10.0 size=     386kB time=00:00:18.00 bitrate= 175.8kbits/s    
frame=  190 fps= 10 q=9.0 size=     392kB time=00:00:18.60 bitrate= 172.8kbits/s    
frame=  196 fps= 10 q=11.0 size=     416kB time=00:00:19.20 bitrate= 177.6kbits/s    
frame=  202 fps= 10 q=12.0 size=     477kB time=00:00:19.80 bitrate= 197.5kbits/s    
frame=  208 fps= 10 q=9.0 size=     492kB time=00:00:20.40 bitrate= 197.7kbits/s    
frame=  214 fps= 10 q=9.0 size=     497kB time=00:00:21.00 bitrate= 193.9kbits/s    
frame=  219 fps= 10 q=9.0 size=     501kB time=00:00:21.50 bitrate= 191.0kbits/s    
frame=  224 fps= 10 q=13.0 size=     619kB time=00:00:22.00 bitrate= 230.4kbits/s    
frame=  230 fps= 10 q=9.0 size=     694kB time=00:00:22.60 bitrate= 251.5kbits/s    
frame=  235 fps= 10 q=9.0 size=     705kB time=00:00:23.10 bitrate= 250.1kbits/s    
frame=  240 fps= 10 q=9.0 size=     706kB time=00:00:23.60 bitrate= 244.9kbits/s    
frame=  246 fps= 10 q=9.0 size=     706kB time=00:00:24.20 bitrate= 239.1kbits/s    
frame=  251 fps= 10 q=16.0 size=     710kB time=00:00:24.70 bitrate= 235.6kbits/s    
frame=  257 fps= 10 q=12.0 size=     858kB time=00:00:25.30 bitrate= 277.8kbits/s    
frame=  263 fps= 10 q=9.0 size=     859kB time=00:00:25.90 bitrate= 271.6kbits/s    
frame=  269 fps= 10 q=9.0 size=     859kB time=00:00:26.50 bitrate= 265.6kbits/s    
frame=  275 fps= 10 q=9.0 size=     860kB time=00:00:27.10 bitrate= 259.8kbits/s    
frame=  281 fps= 10 q=9.0 size=     860kB time=00:00:27.70 bitrate= 254.3kbits/s    
frame=  287 fps= 10 q=9.0 size=     860kB time=00:00:28.30 bitrate= 249.0kbits/s    
frame=  293 fps= 10 q=9.0 size=     861kB time=00:00:28.90 bitrate= 244.0kbits/s    
frame=  298 fps= 10 q=9.0 size=     861kB time=00:00:29.40 bitrate= 239.9kbits/s    
frame=  304 fps= 10 q=9.0 size=     862kB time=00:00:30.00 bitrate= 235.3kbits/s    
frame=  310 fps= 10 q=9.0 size=     862kB time=00:00:30.60 bitrate= 230.8kbits/s    
frame=  316 fps= 10 q=9.0 size=     862kB time=00:00:31.20 bitrate= 226.4kbits/s    
frame=  322 fps= 10 q=9.0 size=     863kB time=00:00:31.80 bitrate= 222.3kbits/s    
frame=  327 fps= 10 q=9.0 size=     863kB time=00:00:32.30 bitrate= 218.9kbits/s    
frame=  333 fps= 10 q=9.0 size=     864kB time=00:00:32.90 bitrate= 215.0kbits/s    
frame=  339 fps= 10 q=9.0 size=     864kB time=00:00:33.50 bitrate= 211.3kbits/s    
frame=  345 fps= 10 q=9.0 size=     864kB time=00:00:34.10 bitrate= 207.7kbits/s    
frame=  350 fps= 10 q=9.0 size=     865kB time=00:00:34.60 bitrate= 204.7kbits/s    
frame=  355 fps= 10 q=9.0 size=     865kB time=00:00:35.10 bitrate= 201.9kbits/s    
frame=  361 fps= 10 q=9.0 size=     866kB time=00:00:35.70 bitrate= 198.6kbits/s    
frame=  366 fps= 10 q=9.0 size=     866kB time=00:00:36.20 bitrate= 195.9kbits/s    
frame=  372 fps= 10 q=9.0 size=     866kB time=00:00:36.80 bitrate= 192.8kbits/s    
frame=  378 fps= 10 q=9.0 size=     866kB time=00:00:37.40 bitrate= 189.8kbits/s    
frame=  384 fps= 10 q=9.0 size=     867kB time=00:00:38.00 bitrate= 186.9kbits/s    
frame=  389 fps= 10 q=9.0 size=     867kB time=00:00:38.50 bitrate= 184.5kbits/s    
frame=  394 fps= 10 q=9.0 size=     868kB time=00:00:39.00 bitrate= 182.2kbits/s    
frame=  400 fps= 10 q=9.0 size=     868kB time=00:00:39.60 bitrate= 179.5kbits/s    
frame=  406 fps= 10 q=9.0 size=     868kB time=00:00:40.20 bitrate= 177.0kbits/s    
frame=  411 fps= 10 q=11.0 size=     870kB time=00:00:40.70 bitrate= 175.1kbits/s    
frame=  416 fps= 10 q=14.0 size=     876kB time=00:00:41.20 bitrate= 174.2kbits/s    
frame=  422 fps= 10 q=10.0 size=     902kB time=00:00:41.80 bitrate= 176.9kbits/s    
frame=  428 fps= 10 q=13.0 size=     931kB time=00:00:42.40 bitrate= 179.8kbits/s    
frame=  433 fps= 10 q=9.0 size=     944kB time=00:00:42.90 bitrate= 180.2kbits/s    
frame=  438 fps= 10 q=9.0 size=     946kB time=00:00:43.40 bitrate= 178.5kbits/s    
frame=  444 fps= 10 q=9.0 size=     947kB time=00:00:44.00 bitrate= 176.3kbits/s    
frame=  449 fps= 10 q=17.0 size=     950kB time=00:00:44.50 bitrate= 174.8kbits/s    
frame=  455 fps= 10 q=12.0 size=    1095kB time=00:00:45.10 bitrate= 198.9kbits/s    
frame=  461 fps= 10 q=9.0 size=    1132kB time=00:00:45.70 bitrate= 203.0kbits/s    
frame=  466 fps= 10 q=9.0 size=    1138kB time=00:00:46.20 bitrate= 201.7kbits/s    
frame=  471 fps= 10 q=9.0 size=    1138kB time=00:00:46.70 bitrate= 199.6kbits/s    
frame=  477 fps= 10 q=9.0 size=    1139kB time=00:00:47.30 bitrate= 197.2kbits/s    
frame=  482 fps= 10 q=9.0 size=    1139kB time=00:00:47.80 bitrate= 195.2kbits/s    
frame=  488 fps= 10 q=9.0 size=    1140kB time=00:00:48.40 bitrate= 192.9kbits/s    
frame=  493 fps= 10 q=9.0 size=    1140kB time=00:00:48.90 bitrate= 191.0kbits/s    
frame=  499 fps= 10 q=9.0 size=    1141kB time=00:00:49.50 bitrate= 188.8kbits/s    
frame=  505 fps= 10 q=16.0 size=    1264kB time=00:00:50.10 bitrate= 206.7kbits/s    
frame=  511 fps= 10 q=10.0 size=    1264kB time=00:00:50.70 bitrate= 204.3kbits/s    
frame=  517 fps= 10 q=9.0 size=    1264kB time=00:00:51.30 bitrate= 201.9kbits/s    
frame=  523 fps= 10 q=9.0 size=    1265kB time=00:00:51.90 bitrate= 199.6kbits/s    
frame=  529 fps= 10 q=12.0 size=    1287kB time=00:00:52.50 bitrate= 200.9kbits/s    
frame=  530 fps= 10 q=-1.0 Lsize=    1298kB time=00:00:53.00 bitrate= 200.7kbits/s    
video:1294kB audio:0kB subtitle:0kB other streams:0kB global headers:0kB muxing overhead: 0.332411%
[libx264 @ 0x208b320] frame I:3     Avg QP:11.67  size: 85051
[libx264 @ 0x208b320] frame P:527   Avg QP:10.08  size:  2029
[libx264 @ 0x208b320] mb I  I16..4: 100.0%  0.0%  0.0%
[libx264 @ 0x208b320] mb P  I16..4:  1.7%  0.0%  0.0%  P16..4:  1.8%  0.0%  0.0%  0.0%  0.0%    skip:96.5%
[libx264 @ 0x208b320] coded y,uvDC,uvAC intra: 15.4% 9.5% 8.7% inter: 0.7% 0.9% 0.5%
[libx264 @ 0x208b320] i16 v,h,dc,p: 73% 24%  2%  1%
[libx264 @ 0x208b320] i8c dc,h,v,p: 82% 14%  3%  1%
[libx264 @ 0x208b320] kb/s:199.93
Exiting normally, received signal 2.
--40000LOG 06:22:24:406198800 Trapped SIGTERM or SIGINT so shutting down ffmpeg gracefully...
--40000LOG 06:22:24:421625100 Will kill VID_TOOL_PID=504 ...
--40000LOG 06:22:25:435720800 Tried to kill -SIGTERM VID_TOOL_PID=504
--40000LOG 06:22:25:443827000 Waiting up to 6s for VID_TOOL_PID=504 to end with SIGTERM...
--40000LOG 06:22:25:474784000 wait_pid successfully managed to SIGTERM:VID_TOOL_PID=504 within less than 6s
--40000LOG 06:22:25:483730600 Will try to fix the videos...
--40000LOG 06:22:26:031115600 Fixing perms for /home/seluser/videos/vid_chrome_or_firefox_40000.mkv*
--40000LOG 06:22:26:061400600 Changing video encoding from mkv to mp4...
--40000LOG 06:22:29:929439500 Conversion from mkv to mp4 succeeded!
--40000LOG 06:22:29:945520600 Cleaning up /home/seluser/videos/vid_chrome_or_firefox_40000.mkv ...
--40000LOG 06:22:29:957928600 Optimizing /home/seluser/videos/vid_chrome_or_firefox_40000.mp4 for HTTP streaming...
--40000LOG 06:22:30:044528400 Succeeded to mp4box_retry.sh within 8s
--40000LOG 06:22:30:059568600 ffmpeg shutdown complete.
